<svg xmlns="http://www.w3.org/2000/svg" viewBox="0 0 48 48" width="48px" height="48px">
  <path fill="#4285F4" d="M23.49 12.27c0-.79.07-1.56.19-2.31H12v4.64h6.48c-.29 1.47-1.12 2.71-2.38 3.55v2.95h3.84c2.25-2.07 3.55-5.13 3.55-8.83z"/>
  <path fill="#34A853" d="M12 24c3.24 0 5.96-1.08 7.95-2.93l-3.84-2.95c-1.07.72-2.44 1.15-4.11 1.15-3.16 0-5.84-2.13-6.8-5.02H1.27v3.13C3.25 21.25 7.26 24 12 24z"/>
  <path fill="#FBBC05" d="M5.2 14.25c-.25-.72-.38-1.49-.38-2.25s.13-1.53.38-2.25V6.62H1.27C.46 8.12 0 9.78 0 11.5s.46 3.38 1.27 4.88l3.93-2.13z"/>
  <path fill="#EA4335" d="M12 4.75c1.77 0 3.34.61 4.58 1.8l3.43-3.43C17.95 1.2 15.23 0 12 0 7.26 0 3.25 2.75 1.27 6.62l3.93 2.13C6.16 6.88 8.84 4.75 12 4.75z"/>
</svg>
